<svg xmlns="http://www.w3.org/2000/svg" viewBox="0 0 56.9965 57.984"><title>avis</title><path d="M37.4965,0c-10.77,0-19.5,7.827-19.5,17.483a16.1483,16.1483,0,0,0,3.225,9.628c-.268,3.19-1.037,7.684-3.225,9.872,0,0,6.686-.938,11.214-3.673a21.3124,21.3124,0,0,0,8.286,1.656c10.77,0,19.5-7.827,19.5-17.483S48.2665,0,37.4965,0Z" fill="#88bc98"/><path d="M25.4395,55.598l-4.177-2.67a5.4136,5.4136,0,0,1-2.244-3.705v-3.24a10.0038,10.0038,0,0,0,3.768-5.762,2.66,2.66,0,0,0,1.226-2.231V35.565a41.2464,41.2464,0,0,1-6.014,1.418c2.188-2.188,2.957-6.682,3.225-9.872a16.5956,16.5956,0,0,1-2.549-5.098,13.7447,13.7447,0,0,0-5.655-1.029c-10.803,0-10,8-10,8V32.11a3.6249,3.6249,0,0,0-.993,2.335v3.546a2.6585,2.6585,0,0,0,1.226,2.231A10.0039,10.0039,0,0,0,7.02,45.984v3.24a5.4094,5.4094,0,0,1-2.244,3.705l-4.177,2.67a1.2944,1.2944,0,0,0,.697,2.385h23.449A1.2951,1.2951,0,0,0,25.4395,55.598Z" fill="#50afc6"/><polygon points="26.996 14.769 27.927 16.656 30.009 16.958 28.503 18.427 28.858 20.5 26.996 19.521 25.135 20.5 25.49 18.427 23.984 16.958 26.066 16.656 26.996 14.769" fill="#f9d63e"/><polygon points="34.33 14.769 35.261 16.656 37.343 16.958 35.836 18.427 36.192 20.5 34.33 19.521 32.468 20.5 32.823 18.427 31.317 16.958 33.399 16.656 34.33 14.769" fill="#f9d63e"/><polygon points="41.663 14.769 42.594 16.656 44.676 16.958 43.17 18.427 43.525 20.5 41.663 19.521 39.801 20.5 40.157 18.427 38.65 16.958 40.732 16.656 41.663 14.769" fill="#f9d63e"/><polygon points="48.996 14.769 49.927 16.656 52.009 16.958 50.503 18.427 50.858 20.5 48.996 19.521 47.135 20.5 47.49 18.427 45.984 16.958 48.066 16.656 48.996 14.769" fill="#f9d63e"/></svg>