<svg xmlns="http://www.w3.org/2000/svg"><symbol id="avis" viewBox="0 0 56.9965 57.984"><title>avis</title><path d="M37.496 0c-10.77 0-19.5 7.827-19.5 17.483a16.148 16.148 0 0 0 3.225 9.628c-.268 3.19-1.037 7.684-3.225 9.872 0 0 6.686-.938 11.214-3.673a21.312 21.312 0 0 0 8.286 1.656c10.77 0 19.5-7.827 19.5-17.483S48.266 0 37.496 0z" fill="#88bc98"/><path d="M25.44 55.598l-4.178-2.67a5.414 5.414 0 0 1-2.244-3.705v-3.24a10.004 10.004 0 0 0 3.768-5.762 2.66 2.66 0 0 0 1.226-2.231v-2.425a41.246 41.246 0 0 1-6.014 1.418c2.188-2.188 2.957-6.682 3.225-9.872a16.596 16.596 0 0 1-2.548-5.098 13.745 13.745 0 0 0-5.655-1.029c-10.803 0-10 8-10 8v3.126a3.625 3.625 0 0 0-.993 2.335v3.546a2.659 2.659 0 0 0 1.226 2.231 10.004 10.004 0 0 0 3.767 5.762v3.24a5.41 5.41 0 0 1-2.244 3.705l-4.177 2.67a1.294 1.294 0 0 0 .697 2.385h23.449a1.295 1.295 0 0 0 .694-2.386z" fill="#50afc6"/><path fill="#f9d63e" d="M26.996 14.769l.931 1.887 2.082.302-1.506 1.469.355 2.073-1.862-.979-1.861.979.355-2.073-1.506-1.469 2.082-.302.93-1.887zM34.33 14.769l.931 1.887 2.082.302-1.507 1.469.356 2.073-1.862-.979-1.862.979.355-2.073-1.506-1.469 2.082-.302.931-1.887zM41.663 14.769l.931 1.887 2.082.302-1.506 1.469.355 2.073-1.862-.979-1.862.979.356-2.073-1.507-1.469 2.082-.302.931-1.887zM48.996 14.769l.931 1.887 2.082.302-1.506 1.469.355 2.073-1.862-.979-1.861.979.355-2.073-1.506-1.469 2.082-.302.93-1.887z"/></symbol></svg>